<svg xmlns="http://www.w3.org/2000/svg" width="240" height="160" viewBox="0 0 240 160">
<defs>
  <linearGradient id="shadow" x1="0" y1="0" x2="0" y2="1"><stop offset="0" stop-color="#000" stop-opacity="0.22"/><stop offset="1" stop-color="#000" stop-opacity="0"/></linearGradient>
  <filter id="ds" x="-30%" y="-30%" width="160%" height="170%"><feDropShadow dx="0" dy="7" stdDeviation="7" flood-opacity="0.22"/></filter>
  <linearGradient id="body" x1="0" y1="0" x2="1" y2="1"><stop offset="0" stop-color="#f9fbff"/><stop offset="1" stop-color="#dbe3ec"/></linearGradient>
  <linearGradient id="metal" x1="0" y1="0" x2="1" y2="1"><stop offset="0" stop-color="#f5f7f9"/><stop offset="0.45" stop-color="#b9c3cd"/><stop offset="1" stop-color="#f8fafc"/></linearGradient>
</defs>

<g filter="url(#ds)">
  <path d="M38 80 H67" stroke="#8b6b55" stroke-width="5" stroke-linecap="round"/>
  <path d="M173 80 H202" stroke="#8b6b55" stroke-width="5" stroke-linecap="round"/>
  <path d="M67 80 L75 66 L86 94 L98 66 L110 94 L122 66 L134 94 L146 66 L154 80 L173 80" fill="none" stroke="#c9ced4" stroke-width="19" stroke-linejoin="round"/>
  <path d="M67 80 L75 66 L86 94 L98 66 L110 94 L122 66 L134 94 L146 66 L154 80" fill="none" stroke="#b7bec6" stroke-width="13" stroke-linejoin="round"/>
  <rect x="76" y="66" width="7" height="28" rx="3" fill="#a24c3d"/>
  <rect x="94" y="66" width="7" height="28" rx="3" fill="#1f2e45"/>
  <rect x="112" y="66" width="7" height="28" rx="3" fill="#2d9a62"/>
  <rect x="130" y="66" width="7" height="28" rx="3" fill="#d0a833"/>
  <rect x="151" y="66" width="8" height="28" rx="3" fill="#7a4a2b"/>
</g>
<text x="120" y="25" text-anchor="middle" fill="#697785" font-family="Arial" font-size="10" font-weight="700">330 Ω</text>

</svg>